<mxfile host="app.diagrams.net" agent="Mozilla/5.0 (Macintosh; Intel Mac OS X 10_15_7) AppleWebKit/605.1.15 (KHTML, like Gecko) Version/18.5 Safari/605.1.15" version="28.0.6">
  <diagram name="Page-1" id="_j6d6sgy_4B8Z4UjnzTW">
    <mxGraphModel dx="977" dy="691" grid="1" gridSize="10" guides="1" tooltips="1" connect="1" arrows="1" fold="1" page="1" pageScale="1" pageWidth="827" pageHeight="1169" math="0" shadow="0">
      <root>
        <mxCell id="0" />
        <mxCell id="1" parent="0" />
        <mxCell id="_mehwsfHotdwkCs-EOkb-26" style="edgeStyle=orthogonalEdgeStyle;rounded=0;orthogonalLoop=1;jettySize=auto;html=1;exitX=0.5;exitY=1;exitDx=0;exitDy=0;entryX=0.5;entryY=0;entryDx=0;entryDy=0;" edge="1" parent="1" source="_mehwsfHotdwkCs-EOkb-1" target="_mehwsfHotdwkCs-EOkb-24">
          <mxGeometry relative="1" as="geometry" />
        </mxCell>
        <mxCell id="_mehwsfHotdwkCs-EOkb-1" value="Start" style="ellipse;whiteSpace=wrap;html=1;" vertex="1" parent="1">
          <mxGeometry x="318" y="30" width="191" height="50" as="geometry" />
        </mxCell>
        <mxCell id="_mehwsfHotdwkCs-EOkb-5" value="" style="edgeStyle=orthogonalEdgeStyle;rounded=0;orthogonalLoop=1;jettySize=auto;html=1;" edge="1" parent="1" source="_mehwsfHotdwkCs-EOkb-2" target="_mehwsfHotdwkCs-EOkb-4">
          <mxGeometry relative="1" as="geometry" />
        </mxCell>
        <mxCell id="_mehwsfHotdwkCs-EOkb-2" value="ประกาศตัวแปร N" style="whiteSpace=wrap;html=1;" vertex="1" parent="1">
          <mxGeometry x="289.99" y="330" width="246.5" height="60" as="geometry" />
        </mxCell>
        <mxCell id="_mehwsfHotdwkCs-EOkb-7" value="" style="edgeStyle=orthogonalEdgeStyle;rounded=0;orthogonalLoop=1;jettySize=auto;html=1;" edge="1" parent="1" source="_mehwsfHotdwkCs-EOkb-4" target="_mehwsfHotdwkCs-EOkb-6">
          <mxGeometry relative="1" as="geometry" />
        </mxCell>
        <mxCell id="_mehwsfHotdwkCs-EOkb-4" value="รับค่าตัวแปร N" style="shape=parallelogram;perimeter=parallelogramPerimeter;whiteSpace=wrap;html=1;fixedSize=1;" vertex="1" parent="1">
          <mxGeometry x="281.74" y="430" width="263" height="60" as="geometry" />
        </mxCell>
        <mxCell id="_mehwsfHotdwkCs-EOkb-9" value="" style="edgeStyle=orthogonalEdgeStyle;rounded=0;orthogonalLoop=1;jettySize=auto;html=1;" edge="1" parent="1" source="_mehwsfHotdwkCs-EOkb-6" target="_mehwsfHotdwkCs-EOkb-8">
          <mxGeometry relative="1" as="geometry" />
        </mxCell>
        <mxCell id="_mehwsfHotdwkCs-EOkb-6" value="รับค่า scanf เข้าไปใน int N" style="whiteSpace=wrap;html=1;" vertex="1" parent="1">
          <mxGeometry x="302" y="520" width="223.5" height="60" as="geometry" />
        </mxCell>
        <mxCell id="_mehwsfHotdwkCs-EOkb-46" value="" style="edgeStyle=orthogonalEdgeStyle;rounded=0;orthogonalLoop=1;jettySize=auto;html=1;" edge="1" parent="1" source="_mehwsfHotdwkCs-EOkb-8" target="_mehwsfHotdwkCs-EOkb-41">
          <mxGeometry relative="1" as="geometry" />
        </mxCell>
        <mxCell id="_mehwsfHotdwkCs-EOkb-62" style="edgeStyle=orthogonalEdgeStyle;rounded=0;orthogonalLoop=1;jettySize=auto;html=1;exitX=1;exitY=0.5;exitDx=0;exitDy=0;entryX=0.5;entryY=0;entryDx=0;entryDy=0;" edge="1" parent="1" source="_mehwsfHotdwkCs-EOkb-8" target="_mehwsfHotdwkCs-EOkb-52">
          <mxGeometry relative="1" as="geometry" />
        </mxCell>
        <mxCell id="_mehwsfHotdwkCs-EOkb-8" value="ตรวจสอบ N ว่าเป็นเลขคู่หรือเลขคี่" style="rhombus;whiteSpace=wrap;html=1;" vertex="1" parent="1">
          <mxGeometry x="319.14" y="630" width="189.87" height="200" as="geometry" />
        </mxCell>
        <mxCell id="_mehwsfHotdwkCs-EOkb-13" value="N เป็นเลขคู่" style="text;html=1;align=center;verticalAlign=middle;resizable=0;points=[];autosize=1;strokeColor=none;fillColor=none;" vertex="1" parent="1">
          <mxGeometry x="280" y="820" width="80" height="30" as="geometry" />
        </mxCell>
        <mxCell id="_mehwsfHotdwkCs-EOkb-16" value="N เป็นเลขคี่" style="text;html=1;align=center;verticalAlign=middle;resizable=0;points=[];autosize=1;strokeColor=none;fillColor=none;" vertex="1" parent="1">
          <mxGeometry x="740" y="790" width="80" height="30" as="geometry" />
        </mxCell>
        <mxCell id="_mehwsfHotdwkCs-EOkb-50" value="" style="edgeStyle=orthogonalEdgeStyle;rounded=0;orthogonalLoop=1;jettySize=auto;html=1;" edge="1" parent="1" source="_mehwsfHotdwkCs-EOkb-17" target="_mehwsfHotdwkCs-EOkb-49">
          <mxGeometry relative="1" as="geometry" />
        </mxCell>
        <mxCell id="_mehwsfHotdwkCs-EOkb-17" value="" style="ellipse;whiteSpace=wrap;html=1;aspect=fixed;" vertex="1" parent="1">
          <mxGeometry x="398.24" y="1210" width="30" height="30" as="geometry" />
        </mxCell>
        <mxCell id="_mehwsfHotdwkCs-EOkb-25" style="edgeStyle=orthogonalEdgeStyle;rounded=0;orthogonalLoop=1;jettySize=auto;html=1;exitX=0.5;exitY=1;exitDx=0;exitDy=0;entryX=0.5;entryY=0;entryDx=0;entryDy=0;" edge="1" parent="1" source="_mehwsfHotdwkCs-EOkb-24" target="_mehwsfHotdwkCs-EOkb-2">
          <mxGeometry relative="1" as="geometry" />
        </mxCell>
        <mxCell id="_mehwsfHotdwkCs-EOkb-40" style="edgeStyle=orthogonalEdgeStyle;rounded=0;orthogonalLoop=1;jettySize=auto;html=1;exitX=0;exitY=0.5;exitDx=0;exitDy=0;entryX=0;entryY=0.5;entryDx=0;entryDy=0;" edge="1" parent="1" source="_mehwsfHotdwkCs-EOkb-24" target="_mehwsfHotdwkCs-EOkb-17">
          <mxGeometry relative="1" as="geometry">
            <Array as="points">
              <mxPoint x="160" y="190" />
              <mxPoint x="160" y="1225" />
            </Array>
          </mxGeometry>
        </mxCell>
        <mxCell id="_mehwsfHotdwkCs-EOkb-24" value="ที่กรอกมาเป็นตัวเลขหรือไม่" style="rhombus;whiteSpace=wrap;html=1;" vertex="1" parent="1">
          <mxGeometry x="326.2" y="110" width="174.07" height="160" as="geometry" />
        </mxCell>
        <mxCell id="_mehwsfHotdwkCs-EOkb-29" value="เป็นตัวเลข" style="text;html=1;align=center;verticalAlign=middle;resizable=0;points=[];autosize=1;strokeColor=none;fillColor=none;" vertex="1" parent="1">
          <mxGeometry x="415" y="278" width="70" height="30" as="geometry" />
        </mxCell>
        <mxCell id="_mehwsfHotdwkCs-EOkb-30" value="ไม่เป็นตัวเลข" style="text;html=1;align=center;verticalAlign=middle;resizable=0;points=[];autosize=1;strokeColor=none;fillColor=none;" vertex="1" parent="1">
          <mxGeometry x="194.07" y="150" width="90" height="30" as="geometry" />
        </mxCell>
        <mxCell id="_mehwsfHotdwkCs-EOkb-45" value="" style="edgeStyle=orthogonalEdgeStyle;rounded=0;orthogonalLoop=1;jettySize=auto;html=1;" edge="1" parent="1" source="_mehwsfHotdwkCs-EOkb-41" target="_mehwsfHotdwkCs-EOkb-42">
          <mxGeometry relative="1" as="geometry" />
        </mxCell>
        <mxCell id="_mehwsfHotdwkCs-EOkb-47" style="edgeStyle=orthogonalEdgeStyle;rounded=0;orthogonalLoop=1;jettySize=auto;html=1;exitX=0;exitY=0.5;exitDx=0;exitDy=0;entryX=0;entryY=0;entryDx=0;entryDy=0;" edge="1" parent="1" source="_mehwsfHotdwkCs-EOkb-41" target="_mehwsfHotdwkCs-EOkb-17">
          <mxGeometry relative="1" as="geometry">
            <Array as="points">
              <mxPoint x="260" y="910" />
              <mxPoint x="260" y="1214" />
            </Array>
          </mxGeometry>
        </mxCell>
        <mxCell id="_mehwsfHotdwkCs-EOkb-41" value="I = N" style="rhombus;whiteSpace=wrap;html=1;" vertex="1" parent="1">
          <mxGeometry x="373.24" y="870" width="80" height="80" as="geometry" />
        </mxCell>
        <mxCell id="_mehwsfHotdwkCs-EOkb-44" value="" style="edgeStyle=orthogonalEdgeStyle;rounded=0;orthogonalLoop=1;jettySize=auto;html=1;" edge="1" parent="1" source="_mehwsfHotdwkCs-EOkb-42" target="_mehwsfHotdwkCs-EOkb-43">
          <mxGeometry relative="1" as="geometry" />
        </mxCell>
        <mxCell id="_mehwsfHotdwkCs-EOkb-48" style="edgeStyle=orthogonalEdgeStyle;rounded=0;orthogonalLoop=1;jettySize=auto;html=1;exitX=0;exitY=0.5;exitDx=0;exitDy=0;entryX=0;entryY=0;entryDx=0;entryDy=0;" edge="1" parent="1" source="_mehwsfHotdwkCs-EOkb-42" target="_mehwsfHotdwkCs-EOkb-17">
          <mxGeometry relative="1" as="geometry">
            <Array as="points">
              <mxPoint x="300" y="1030" />
              <mxPoint x="300" y="1200" />
              <mxPoint x="403" y="1200" />
            </Array>
          </mxGeometry>
        </mxCell>
        <mxCell id="_mehwsfHotdwkCs-EOkb-42" value="I &amp;gt;= 0" style="rhombus;whiteSpace=wrap;html=1;" vertex="1" parent="1">
          <mxGeometry x="373.24" y="990" width="80" height="80" as="geometry" />
        </mxCell>
        <mxCell id="_mehwsfHotdwkCs-EOkb-51" style="edgeStyle=orthogonalEdgeStyle;rounded=0;orthogonalLoop=1;jettySize=auto;html=1;exitX=0.5;exitY=1;exitDx=0;exitDy=0;entryX=0.5;entryY=0;entryDx=0;entryDy=0;" edge="1" parent="1" source="_mehwsfHotdwkCs-EOkb-43" target="_mehwsfHotdwkCs-EOkb-17">
          <mxGeometry relative="1" as="geometry" />
        </mxCell>
        <mxCell id="_mehwsfHotdwkCs-EOkb-43" value="i -= 2" style="whiteSpace=wrap;html=1;" vertex="1" parent="1">
          <mxGeometry x="353.24" y="1090" width="120" height="60" as="geometry" />
        </mxCell>
        <mxCell id="_mehwsfHotdwkCs-EOkb-74" style="edgeStyle=orthogonalEdgeStyle;rounded=0;orthogonalLoop=1;jettySize=auto;html=1;exitX=0.5;exitY=1;exitDx=0;exitDy=0;entryX=0.5;entryY=0;entryDx=0;entryDy=0;" edge="1" parent="1" source="_mehwsfHotdwkCs-EOkb-49" target="_mehwsfHotdwkCs-EOkb-73">
          <mxGeometry relative="1" as="geometry" />
        </mxCell>
        <mxCell id="_mehwsfHotdwkCs-EOkb-49" value="แสดงค่า I" style="shape=parallelogram;perimeter=parallelogramPerimeter;whiteSpace=wrap;html=1;fixedSize=1;" vertex="1" parent="1">
          <mxGeometry x="353.24" y="1305" width="120" height="60" as="geometry" />
        </mxCell>
        <mxCell id="_mehwsfHotdwkCs-EOkb-56" style="edgeStyle=orthogonalEdgeStyle;rounded=0;orthogonalLoop=1;jettySize=auto;html=1;exitX=0.5;exitY=1;exitDx=0;exitDy=0;entryX=0.5;entryY=0;entryDx=0;entryDy=0;" edge="1" parent="1" source="_mehwsfHotdwkCs-EOkb-52" target="_mehwsfHotdwkCs-EOkb-53">
          <mxGeometry relative="1" as="geometry" />
        </mxCell>
        <mxCell id="_mehwsfHotdwkCs-EOkb-63" style="edgeStyle=orthogonalEdgeStyle;rounded=0;orthogonalLoop=1;jettySize=auto;html=1;exitX=1;exitY=0.5;exitDx=0;exitDy=0;entryX=1;entryY=1;entryDx=0;entryDy=0;" edge="1" parent="1" source="_mehwsfHotdwkCs-EOkb-52" target="_mehwsfHotdwkCs-EOkb-17">
          <mxGeometry relative="1" as="geometry">
            <Array as="points">
              <mxPoint x="810" y="910" />
              <mxPoint x="810" y="1250" />
              <mxPoint x="424" y="1250" />
            </Array>
          </mxGeometry>
        </mxCell>
        <mxCell id="_mehwsfHotdwkCs-EOkb-52" value="I = 1" style="rhombus;whiteSpace=wrap;html=1;" vertex="1" parent="1">
          <mxGeometry x="670" y="870" width="80" height="80" as="geometry" />
        </mxCell>
        <mxCell id="_mehwsfHotdwkCs-EOkb-58" style="edgeStyle=orthogonalEdgeStyle;rounded=0;orthogonalLoop=1;jettySize=auto;html=1;exitX=0.5;exitY=1;exitDx=0;exitDy=0;entryX=0.5;entryY=0;entryDx=0;entryDy=0;" edge="1" parent="1" source="_mehwsfHotdwkCs-EOkb-53" target="_mehwsfHotdwkCs-EOkb-54">
          <mxGeometry relative="1" as="geometry" />
        </mxCell>
        <mxCell id="_mehwsfHotdwkCs-EOkb-64" style="edgeStyle=orthogonalEdgeStyle;rounded=0;orthogonalLoop=1;jettySize=auto;html=1;exitX=1;exitY=0.5;exitDx=0;exitDy=0;" edge="1" parent="1" source="_mehwsfHotdwkCs-EOkb-53">
          <mxGeometry relative="1" as="geometry">
            <mxPoint x="430" y="1240" as="targetPoint" />
            <Array as="points">
              <mxPoint x="780" y="1030" />
              <mxPoint x="780" y="1240" />
            </Array>
          </mxGeometry>
        </mxCell>
        <mxCell id="_mehwsfHotdwkCs-EOkb-53" value="I &amp;lt;= N" style="rhombus;whiteSpace=wrap;html=1;" vertex="1" parent="1">
          <mxGeometry x="670" y="990" width="80" height="80" as="geometry" />
        </mxCell>
        <mxCell id="_mehwsfHotdwkCs-EOkb-59" style="edgeStyle=orthogonalEdgeStyle;rounded=0;orthogonalLoop=1;jettySize=auto;html=1;exitX=0.5;exitY=1;exitDx=0;exitDy=0;entryX=1;entryY=0.5;entryDx=0;entryDy=0;" edge="1" parent="1" source="_mehwsfHotdwkCs-EOkb-54" target="_mehwsfHotdwkCs-EOkb-17">
          <mxGeometry relative="1" as="geometry" />
        </mxCell>
        <mxCell id="_mehwsfHotdwkCs-EOkb-54" value="i += 2" style="whiteSpace=wrap;html=1;" vertex="1" parent="1">
          <mxGeometry x="650" y="1090" width="120" height="60" as="geometry" />
        </mxCell>
        <mxCell id="_mehwsfHotdwkCs-EOkb-65" value="no" style="text;html=1;align=center;verticalAlign=middle;resizable=0;points=[];autosize=1;strokeColor=none;fillColor=none;" vertex="1" parent="1">
          <mxGeometry x="710" y="948" width="40" height="30" as="geometry" />
        </mxCell>
        <mxCell id="_mehwsfHotdwkCs-EOkb-66" value="no" style="text;html=1;align=center;verticalAlign=middle;resizable=0;points=[];autosize=1;strokeColor=none;fillColor=none;" vertex="1" parent="1">
          <mxGeometry x="710" y="1058" width="40" height="30" as="geometry" />
        </mxCell>
        <mxCell id="_mehwsfHotdwkCs-EOkb-67" value="yes" style="text;html=1;align=center;verticalAlign=middle;resizable=0;points=[];autosize=1;strokeColor=none;fillColor=none;" vertex="1" parent="1">
          <mxGeometry x="750" y="998" width="40" height="30" as="geometry" />
        </mxCell>
        <mxCell id="_mehwsfHotdwkCs-EOkb-68" value="yes" style="text;html=1;align=center;verticalAlign=middle;resizable=0;points=[];autosize=1;strokeColor=none;fillColor=none;" vertex="1" parent="1">
          <mxGeometry x="760" y="878" width="40" height="30" as="geometry" />
        </mxCell>
        <mxCell id="_mehwsfHotdwkCs-EOkb-69" value="yes" style="text;html=1;align=center;verticalAlign=middle;resizable=0;points=[];autosize=1;strokeColor=none;fillColor=none;" vertex="1" parent="1">
          <mxGeometry x="300" y="878" width="40" height="30" as="geometry" />
        </mxCell>
        <mxCell id="_mehwsfHotdwkCs-EOkb-70" value="yes" style="text;html=1;align=center;verticalAlign=middle;resizable=0;points=[];autosize=1;strokeColor=none;fillColor=none;" vertex="1" parent="1">
          <mxGeometry x="310" y="1008" width="40" height="30" as="geometry" />
        </mxCell>
        <mxCell id="_mehwsfHotdwkCs-EOkb-71" value="no" style="text;html=1;align=center;verticalAlign=middle;resizable=0;points=[];autosize=1;strokeColor=none;fillColor=none;" vertex="1" parent="1">
          <mxGeometry x="360" y="1058" width="40" height="30" as="geometry" />
        </mxCell>
        <mxCell id="_mehwsfHotdwkCs-EOkb-72" value="no" style="text;html=1;align=center;verticalAlign=middle;resizable=0;points=[];autosize=1;strokeColor=none;fillColor=none;" vertex="1" parent="1">
          <mxGeometry x="360" y="948" width="40" height="30" as="geometry" />
        </mxCell>
        <mxCell id="_mehwsfHotdwkCs-EOkb-73" value="end" style="ellipse;whiteSpace=wrap;html=1;" vertex="1" parent="1">
          <mxGeometry x="320" y="1410" width="186.76" height="70" as="geometry" />
        </mxCell>
      </root>
    </mxGraphModel>
  </diagram>
</mxfile>
